<mxfile host="app.diagrams.net" modified="2022-03-25T11:42:14.874Z" agent="5.0 (Macintosh; Intel Mac OS X 10_15_7) AppleWebKit/537.36 (KHTML, like Gecko) Chrome/99.0.4844.83 Safari/537.36" etag="R7ci9HkpEifcaKc-LrrY" version="17.2.1" type="github">
  <diagram id="m_GKXxuateL1iwqDlvAu" name="Page-1">
    <mxGraphModel dx="1185" dy="688" grid="1" gridSize="10" guides="1" tooltips="1" connect="1" arrows="1" fold="1" page="1" pageScale="1" pageWidth="827" pageHeight="1169" math="0" shadow="0">
      <root>
        <mxCell id="0" />
        <mxCell id="1" parent="0" />
        <mxCell id="CMLz8EhTT_OKYTslJudy-1" style="edgeStyle=orthogonalEdgeStyle;rounded=0;orthogonalLoop=1;jettySize=auto;html=1;entryX=0;entryY=0.5;entryDx=0;entryDy=0;fontSize=16;" edge="1" parent="1" source="CMLz8EhTT_OKYTslJudy-2" target="CMLz8EhTT_OKYTslJudy-6">
          <mxGeometry relative="1" as="geometry" />
        </mxCell>
        <mxCell id="CMLz8EhTT_OKYTslJudy-2" value="1" style="rounded=0;whiteSpace=wrap;html=1;fontSize=16;" vertex="1" parent="1">
          <mxGeometry x="120" y="240" width="40" height="40" as="geometry" />
        </mxCell>
        <mxCell id="CMLz8EhTT_OKYTslJudy-3" value="" style="endArrow=classic;html=1;rounded=0;entryX=0;entryY=0;entryDx=0;entryDy=0;fontSize=16;" edge="1" parent="1">
          <mxGeometry width="50" height="50" relative="1" as="geometry">
            <mxPoint x="135" y="210" as="sourcePoint" />
            <mxPoint x="135" y="240" as="targetPoint" />
          </mxGeometry>
        </mxCell>
        <mxCell id="CMLz8EhTT_OKYTslJudy-4" value="head" style="text;html=1;align=center;verticalAlign=middle;resizable=0;points=[];autosize=1;strokeColor=#6c8ebf;fillColor=#dae8fc;fontSize=16;gradientColor=#7ea6e0;" vertex="1" parent="1">
          <mxGeometry x="110" y="190" width="50" height="20" as="geometry" />
        </mxCell>
        <mxCell id="CMLz8EhTT_OKYTslJudy-5" style="edgeStyle=orthogonalEdgeStyle;rounded=0;orthogonalLoop=1;jettySize=auto;html=1;entryX=0;entryY=0.5;entryDx=0;entryDy=0;fontSize=16;" edge="1" parent="1" source="CMLz8EhTT_OKYTslJudy-6" target="CMLz8EhTT_OKYTslJudy-11">
          <mxGeometry relative="1" as="geometry" />
        </mxCell>
        <mxCell id="CMLz8EhTT_OKYTslJudy-6" value="2" style="rounded=0;whiteSpace=wrap;html=1;fontSize=16;" vertex="1" parent="1">
          <mxGeometry x="200" y="240" width="40" height="40" as="geometry" />
        </mxCell>
        <mxCell id="CMLz8EhTT_OKYTslJudy-7" value="" style="shape=curlyBracket;whiteSpace=wrap;html=1;rounded=1;flipH=1;fontSize=16;rotation=90;" vertex="1" parent="1">
          <mxGeometry x="360" y="40" width="20" height="500" as="geometry" />
        </mxCell>
        <mxCell id="CMLz8EhTT_OKYTslJudy-8" value="young 区域" style="text;html=1;align=center;verticalAlign=middle;resizable=0;points=[];autosize=1;strokeColor=#6c8ebf;fillColor=#dae8fc;fontSize=16;gradientColor=#7ea6e0;" vertex="1" parent="1">
          <mxGeometry x="320" y="310" width="100" height="20" as="geometry" />
        </mxCell>
        <mxCell id="CMLz8EhTT_OKYTslJudy-9" value="old 区域" style="text;html=1;align=center;verticalAlign=middle;resizable=0;points=[];autosize=1;strokeColor=#d79b00;fillColor=#ffcd28;fontSize=16;gradientColor=#ffa500;" vertex="1" parent="1">
          <mxGeometry x="739.75" y="310" width="70" height="20" as="geometry" />
        </mxCell>
        <mxCell id="CMLz8EhTT_OKYTslJudy-10" style="edgeStyle=orthogonalEdgeStyle;rounded=0;orthogonalLoop=1;jettySize=auto;html=1;entryX=0;entryY=0.5;entryDx=0;entryDy=0;fontSize=16;" edge="1" parent="1" source="CMLz8EhTT_OKYTslJudy-11">
          <mxGeometry relative="1" as="geometry">
            <mxPoint x="360" y="260" as="targetPoint" />
          </mxGeometry>
        </mxCell>
        <mxCell id="CMLz8EhTT_OKYTslJudy-11" value="3" style="rounded=0;whiteSpace=wrap;html=1;fontSize=16;" vertex="1" parent="1">
          <mxGeometry x="280" y="240" width="40" height="40" as="geometry" />
        </mxCell>
        <mxCell id="CMLz8EhTT_OKYTslJudy-12" style="edgeStyle=orthogonalEdgeStyle;rounded=0;orthogonalLoop=1;jettySize=auto;html=1;entryX=0;entryY=0.5;entryDx=0;entryDy=0;fontSize=16;" edge="1" parent="1" source="CMLz8EhTT_OKYTslJudy-13" target="CMLz8EhTT_OKYTslJudy-16">
          <mxGeometry relative="1" as="geometry" />
        </mxCell>
        <mxCell id="CMLz8EhTT_OKYTslJudy-13" value="8" style="rounded=0;whiteSpace=wrap;html=1;fontSize=16;" vertex="1" parent="1">
          <mxGeometry x="681" y="240" width="40" height="40" as="geometry" />
        </mxCell>
        <mxCell id="CMLz8EhTT_OKYTslJudy-14" value="" style="endArrow=classic;html=1;rounded=0;entryX=0;entryY=0;entryDx=0;entryDy=0;fontSize=16;" edge="1" parent="1">
          <mxGeometry width="50" height="50" relative="1" as="geometry">
            <mxPoint x="620" y="210" as="sourcePoint" />
            <mxPoint x="620" y="240" as="targetPoint" />
          </mxGeometry>
        </mxCell>
        <mxCell id="CMLz8EhTT_OKYTslJudy-15" value="tail" style="text;html=1;align=center;verticalAlign=middle;resizable=0;points=[];autosize=1;strokeColor=#6c8ebf;fillColor=#dae8fc;fontSize=16;gradientColor=#7ea6e0;" vertex="1" parent="1">
          <mxGeometry x="600" y="190" width="40" height="20" as="geometry" />
        </mxCell>
        <mxCell id="CMLz8EhTT_OKYTslJudy-16" value="9" style="rounded=0;whiteSpace=wrap;html=1;fontSize=16;" vertex="1" parent="1">
          <mxGeometry x="761" y="240" width="40" height="40" as="geometry" />
        </mxCell>
        <mxCell id="CMLz8EhTT_OKYTslJudy-17" style="edgeStyle=orthogonalEdgeStyle;rounded=0;orthogonalLoop=1;jettySize=auto;html=1;entryX=0;entryY=0.5;entryDx=0;entryDy=0;fontSize=16;" edge="1" parent="1" target="CMLz8EhTT_OKYTslJudy-18">
          <mxGeometry relative="1" as="geometry">
            <mxPoint x="801" y="260" as="sourcePoint" />
          </mxGeometry>
        </mxCell>
        <mxCell id="CMLz8EhTT_OKYTslJudy-18" value="10" style="rounded=0;whiteSpace=wrap;html=1;fontSize=16;" vertex="1" parent="1">
          <mxGeometry x="841" y="240" width="45" height="40" as="geometry" />
        </mxCell>
        <mxCell id="CMLz8EhTT_OKYTslJudy-19" value="" style="endArrow=classic;html=1;rounded=0;entryX=0;entryY=0;entryDx=0;entryDy=0;fontSize=16;" edge="1" parent="1">
          <mxGeometry width="50" height="50" relative="1" as="geometry">
            <mxPoint x="701" y="210" as="sourcePoint" />
            <mxPoint x="701" y="240" as="targetPoint" />
          </mxGeometry>
        </mxCell>
        <mxCell id="CMLz8EhTT_OKYTslJudy-20" value="head" style="text;html=1;align=center;verticalAlign=middle;resizable=0;points=[];autosize=1;strokeColor=#d79b00;fillColor=#ffcd28;fontSize=16;gradientColor=#ffa500;" vertex="1" parent="1">
          <mxGeometry x="676" y="190" width="50" height="20" as="geometry" />
        </mxCell>
        <mxCell id="CMLz8EhTT_OKYTslJudy-21" value="" style="shape=curlyBracket;whiteSpace=wrap;html=1;rounded=1;flipH=1;fontSize=16;rotation=90;" vertex="1" parent="1">
          <mxGeometry x="763.5" y="207.5" width="22.5" height="167.5" as="geometry" />
        </mxCell>
        <mxCell id="CMLz8EhTT_OKYTslJudy-22" style="edgeStyle=orthogonalEdgeStyle;rounded=0;orthogonalLoop=1;jettySize=auto;html=1;entryX=0;entryY=0.5;entryDx=0;entryDy=0;fontSize=16;" edge="1" parent="1" source="CMLz8EhTT_OKYTslJudy-23" target="CMLz8EhTT_OKYTslJudy-2">
          <mxGeometry relative="1" as="geometry" />
        </mxCell>
        <mxCell id="CMLz8EhTT_OKYTslJudy-23" value="LRU 链表" style="text;html=1;align=center;verticalAlign=middle;resizable=0;points=[];autosize=1;strokeColor=#36393d;fillColor=#ffff88;fontSize=16;" vertex="1" parent="1">
          <mxGeometry y="250" width="80" height="20" as="geometry" />
        </mxCell>
        <mxCell id="CMLz8EhTT_OKYTslJudy-24" value="" style="endArrow=classic;html=1;rounded=0;entryX=0;entryY=0;entryDx=0;entryDy=0;fontSize=16;" edge="1" parent="1">
          <mxGeometry width="50" height="50" relative="1" as="geometry">
            <mxPoint x="861" y="210" as="sourcePoint" />
            <mxPoint x="861" y="240" as="targetPoint" />
          </mxGeometry>
        </mxCell>
        <mxCell id="CMLz8EhTT_OKYTslJudy-25" value="tail" style="text;html=1;align=center;verticalAlign=middle;resizable=0;points=[];autosize=1;strokeColor=#d79b00;fillColor=#ffcd28;fontSize=16;gradientColor=#ffa500;" vertex="1" parent="1">
          <mxGeometry x="841" y="190" width="40" height="20" as="geometry" />
        </mxCell>
        <mxCell id="CMLz8EhTT_OKYTslJudy-30" style="edgeStyle=orthogonalEdgeStyle;rounded=0;orthogonalLoop=1;jettySize=auto;html=1;entryX=0;entryY=0.5;entryDx=0;entryDy=0;" edge="1" parent="1" source="CMLz8EhTT_OKYTslJudy-26" target="CMLz8EhTT_OKYTslJudy-27">
          <mxGeometry relative="1" as="geometry" />
        </mxCell>
        <mxCell id="CMLz8EhTT_OKYTslJudy-26" value="4" style="rounded=0;whiteSpace=wrap;html=1;fontSize=16;" vertex="1" parent="1">
          <mxGeometry x="360" y="240" width="40" height="40" as="geometry" />
        </mxCell>
        <mxCell id="CMLz8EhTT_OKYTslJudy-31" style="edgeStyle=orthogonalEdgeStyle;rounded=0;orthogonalLoop=1;jettySize=auto;html=1;" edge="1" parent="1" source="CMLz8EhTT_OKYTslJudy-27" target="CMLz8EhTT_OKYTslJudy-28">
          <mxGeometry relative="1" as="geometry" />
        </mxCell>
        <mxCell id="CMLz8EhTT_OKYTslJudy-27" value="5" style="rounded=0;whiteSpace=wrap;html=1;fontSize=16;" vertex="1" parent="1">
          <mxGeometry x="440" y="240" width="40" height="40" as="geometry" />
        </mxCell>
        <mxCell id="CMLz8EhTT_OKYTslJudy-32" style="edgeStyle=orthogonalEdgeStyle;rounded=0;orthogonalLoop=1;jettySize=auto;html=1;" edge="1" parent="1" source="CMLz8EhTT_OKYTslJudy-28" target="CMLz8EhTT_OKYTslJudy-29">
          <mxGeometry relative="1" as="geometry" />
        </mxCell>
        <mxCell id="CMLz8EhTT_OKYTslJudy-28" value="6" style="rounded=0;whiteSpace=wrap;html=1;fontSize=16;" vertex="1" parent="1">
          <mxGeometry x="520" y="240" width="40" height="40" as="geometry" />
        </mxCell>
        <mxCell id="CMLz8EhTT_OKYTslJudy-33" style="edgeStyle=orthogonalEdgeStyle;rounded=0;orthogonalLoop=1;jettySize=auto;html=1;entryX=0;entryY=0.5;entryDx=0;entryDy=0;" edge="1" parent="1" source="CMLz8EhTT_OKYTslJudy-29" target="CMLz8EhTT_OKYTslJudy-13">
          <mxGeometry relative="1" as="geometry" />
        </mxCell>
        <mxCell id="CMLz8EhTT_OKYTslJudy-29" value="7" style="rounded=0;whiteSpace=wrap;html=1;fontSize=16;" vertex="1" parent="1">
          <mxGeometry x="600" y="240" width="40" height="40" as="geometry" />
        </mxCell>
      </root>
    </mxGraphModel>
  </diagram>
</mxfile>
